<svg width="75" height="50" viewBox="0 0 75 50" fill="none" xmlns="http://www.w3.org/2000/svg">
<path d="M21.35 22.9297L67.7768 67.3477L68.8602 69.8504" stroke="#A3CCD9" stroke-width="6"/>
<path d="M7 13C3.13401 13 0 16.134 0 20C0 23.866 3.13401 27 7 27V13ZM25 27H32V13H25V27ZM7 27H25V13H7V27Z" fill="#0095FD"/>
<path d="M62 27C65.866 27 69 23.866 69 20C69 16.134 65.866 13 62 13V27ZM44 13L37 13V27L44 27V13ZM62 13L44 13V27H62V13Z" fill="#0095FD"/>
<path d="M59.6291 9.44663C60.8641 7.94501 60.7111 5.68153 59.2873 4.39101C57.8634 3.10049 55.708 3.27163 54.4729 4.77324L59.6291 9.44663ZM54.4729 4.77324L12.0002 56.4131L17.1564 61.0865L59.6291 9.44663L54.4729 4.77324Z" fill="#A3CCD9"/>
<path d="M33.3004 34.3089C31.5888 34.3089 30.1115 33.9716 28.8686 33.2969C27.6328 32.6151 26.6811 31.6456 26.0135 30.3885C25.353 29.1243 25.0227 27.6222 25.0227 25.8821C25.0227 24.1918 25.3565 22.7145 26.0241 21.4503C26.6918 20.179 27.6328 19.1918 28.8473 18.4886C30.0618 17.7784 31.4929 17.4233 33.1406 17.4233C34.3054 17.4233 35.3707 17.6044 36.3366 17.9666C37.3026 18.3288 38.1371 18.8651 38.8402 19.5753C39.5433 20.2855 40.0902 21.1626 40.4808 22.2067C40.8714 23.2436 41.0668 24.4332 41.0668 25.7756V27.0753H26.8445V24.0497H36.2195C36.2124 23.4957 36.081 23.0021 35.8253 22.5689C35.5696 22.1357 35.218 21.7983 34.7706 21.5568C34.3303 21.3082 33.8224 21.1839 33.2472 21.1839C32.6648 21.1839 32.1428 21.3153 31.6811 21.5781C31.2195 21.8338 30.8537 22.1854 30.5838 22.6328C30.3139 23.0732 30.1719 23.5739 30.1577 24.1349V27.2138C30.1577 27.8814 30.2891 28.4673 30.5518 28.9716C30.8146 29.4687 31.1875 29.8558 31.6705 30.1328C32.1534 30.4098 32.7287 30.5483 33.3963 30.5483C33.858 30.5483 34.277 30.4844 34.6534 30.3565C35.0298 30.2287 35.353 30.0405 35.6229 29.7919C35.8928 29.5433 36.0952 29.2379 36.2301 28.8757L41.0135 29.0142C40.8146 30.0866 40.3778 31.0206 39.7031 31.8161C39.0355 32.6044 38.1584 33.2187 37.0717 33.6591C35.9851 34.0923 34.728 34.3089 33.3004 34.3089Z" fill="#A3CCD9"/>
<path d="M33.0862 34.0783L28.7443 26.5851L37.4046 26.5715L33.0862 34.0783Z" fill="#A3CCD9"/>
<path d="M33 29C31.3431 29 30 27.6569 30 26C32.7 26 33 26 33 26L36 26C36 27.6569 34.6569 29 33 29Z" fill="#0095FD"/>
</svg>
