<svg width="250" height="50" viewBox="0 0 250 50" fill="none" xmlns="http://www.w3.org/2000/svg">
<g clip-path="url(#clip0_20_15)">
<path d="M27.35 22.9297L73.7768 67.3477L74.8602 69.8504" stroke="#A3CCD9" stroke-width="6"/>
<circle cx="229.5" cy="12.5" r="7" stroke="#0095FD"/>
<path d="M226.03 11.2354H224.34V10.4209H228.649V11.2354H226.959V15H226.03V11.2354ZM229.646 10.4209H230.574L232.238 12.0908L233.902 10.4209H234.831V15H233.902V11.707L232.238 13.3096L230.574 11.707V15H229.646V10.4209Z" fill="#0095FD"/>
<path d="M13 13C9.13401 13 6 16.134 6 20C6 23.866 9.13401 27 13 27V13ZM31 27H38V13H31V27ZM13 27H31V13H13V27Z" fill="#0095FD"/>
<path d="M68 27C71.866 27 75 23.866 75 20C75 16.134 71.866 13 68 13V27ZM50 13L43 13V27L50 27V13ZM68 13L50 13V27H68V13Z" fill="#0095FD"/>
<path d="M65.6291 9.44663C66.8641 7.94501 66.7111 5.68153 65.2873 4.39101C63.8634 3.10049 61.708 3.27163 60.4729 4.77324L65.6291 9.44663ZM60.4729 4.77324L18.0002 56.4131L23.1564 61.0865L65.6291 9.44663L60.4729 4.77324Z" fill="#A3CCD9"/>
<path d="M39.3004 34.3089C37.5888 34.3089 36.1115 33.9716 34.8686 33.2969C33.6328 32.6151 32.6811 31.6456 32.0135 30.3885C31.353 29.1243 31.0227 27.6222 31.0227 25.8821C31.0227 24.1918 31.3565 22.7145 32.0241 21.4503C32.6918 20.179 33.6328 19.1918 34.8473 18.4886C36.0618 17.7784 37.4929 17.4233 39.1406 17.4233C40.3054 17.4233 41.3707 17.6044 42.3366 17.9666C43.3026 18.3288 44.1371 18.8651 44.8402 19.5753C45.5433 20.2855 46.0902 21.1626 46.4808 22.2067C46.8714 23.2436 47.0668 24.4332 47.0668 25.7756V27.0753H32.8445V24.0497H42.2195C42.2124 23.4957 42.081 23.0021 41.8253 22.5689C41.5696 22.1357 41.218 21.7983 40.7706 21.5568C40.3303 21.3082 39.8224 21.1839 39.2472 21.1839C38.6648 21.1839 38.1428 21.3153 37.6811 21.5781C37.2195 21.8338 36.8537 22.1854 36.5838 22.6328C36.3139 23.0732 36.1719 23.5739 36.1577 24.1349V27.2138C36.1577 27.8814 36.2891 28.4673 36.5518 28.9716C36.8146 29.4687 37.1875 29.8558 37.6705 30.1328C38.1534 30.4098 38.7287 30.5483 39.3963 30.5483C39.858 30.5483 40.277 30.4844 40.6534 30.3565C41.0298 30.2287 41.353 30.0405 41.6229 29.7919C41.8928 29.5433 42.0952 29.2379 42.2301 28.8757L47.0135 29.0142C46.8146 30.0866 46.3778 31.0206 45.7031 31.8161C45.0355 32.6044 44.1584 33.2187 43.0717 33.6591C41.9851 34.0923 40.728 34.3089 39.3004 34.3089Z" fill="#A3CCD9"/>
<path d="M39.0862 34.0783L34.7443 26.5851L43.4046 26.5715L39.0862 34.0783Z" fill="#A3CCD9"/>
<path d="M39 29C37.3431 29 36 27.6569 36 26C38.7 26 39 26 39 26L42 26C42 27.6569 40.6569 29 39 29Z" fill="#0095FD"/>
<path d="M115.095 46.525V49H109.92L101.46 36.31H93.675V45.13L97.005 46.525V49H86.475V46.525L89.805 45.13V22.27L86.475 20.965V18.4H104.43C107.34 18.4 109.545 19.165 111.045 20.695C112.545 22.195 113.295 24.415 113.295 27.355C113.295 29.965 112.665 32.02 111.405 33.52C110.175 34.99 108.36 35.875 105.96 36.175L112.035 45.175L115.095 46.525ZM93.675 33.07H103.62C105.63 33.07 107.07 32.635 107.94 31.765C108.81 30.865 109.245 29.395 109.245 27.355C109.245 25.345 108.825 23.89 107.985 22.99C107.175 22.09 105.87 21.64 104.07 21.64H93.675V33.07Z" fill="#0095FD"/>
<path d="M143.705 30.235L135.56 37.615L143.615 45.175L146.315 46.525V49H136.145V46.525L138.755 45.175L132.725 39.55L126.965 45.175L129.575 46.525V49H120.125V46.525L122.825 45.175L130.88 37.795L122.735 30.235L120.125 28.975V26.41H130.25V28.975L127.64 30.235L133.67 35.905L139.565 30.235L136.955 28.975V26.41H146.315V28.975L143.705 30.235Z" fill="#0095FD"/>
<path d="M182.08 40.585V49H156.7V45.175L177.31 21.64H160.75L159.58 26.365H156.925V18.4H181.63V22.225L161.02 45.76H178.255L179.425 40.585H182.08Z" fill="#A3CCD9"/>
<path d="M196.14 24.78C199.2 24.78 201.675 25.74 203.565 27.66C205.485 29.55 206.445 32.37 206.445 36.12V37.92H188.805C188.955 39.93 189.315 41.475 189.885 42.555C190.485 43.605 191.34 44.34 192.45 44.76C193.59 45.18 195.15 45.39 197.13 45.39C199.98 45.39 202.8 45.045 205.59 44.355V47.595C204.42 47.895 203.055 48.135 201.495 48.315C199.935 48.525 198.45 48.63 197.04 48.63C193.05 48.63 190.02 47.73 187.95 45.93C185.88 44.13 184.845 41.055 184.845 36.705C184.845 32.655 185.865 29.655 187.905 27.705C189.945 25.755 192.69 24.78 196.14 24.78ZM195.915 28.02C193.575 28.02 191.865 28.545 190.785 29.595C189.705 30.645 189.06 32.355 188.85 34.725H202.44C202.26 32.505 201.645 30.84 200.595 29.73C199.545 28.59 197.985 28.02 195.915 28.02Z" fill="#A3CCD9"/>
<path d="M219.14 24.78C222.2 24.78 224.675 25.74 226.565 27.66C228.485 29.55 229.445 32.37 229.445 36.12V37.92H211.805C211.955 39.93 212.315 41.475 212.885 42.555C213.485 43.605 214.34 44.34 215.45 44.76C216.59 45.18 218.15 45.39 220.13 45.39C222.98 45.39 225.8 45.045 228.59 44.355V47.595C227.42 47.895 226.055 48.135 224.495 48.315C222.935 48.525 221.45 48.63 220.04 48.63C216.05 48.63 213.02 47.73 210.95 45.93C208.88 44.13 207.845 41.055 207.845 36.705C207.845 32.655 208.865 29.655 210.905 27.705C212.945 25.755 215.69 24.78 219.14 24.78ZM218.915 28.02C216.575 28.02 214.865 28.545 213.785 29.595C212.705 30.645 212.06 32.355 211.85 34.725H225.44C225.26 32.505 224.645 30.84 223.595 29.73C222.545 28.59 220.985 28.02 218.915 28.02Z" fill="#A3CCD9"/>
</g>
<defs>
<clipPath id="clip0_20_15">
<rect width="250" height="50" fill="white"/>
</clipPath>
</defs>
</svg>
